<?xml version="1.0" encoding="UTF-8" ?>
<svg version="1.1" width="32" height="32" xmlns="http://www.w3.org/2000/svg" shape-rendering="crispEdges">
<rect x="0" y="16" width="1" height="1" fill="#16B8FF" />
<rect x="31" y="16" width="1" height="1" fill="#16B8FF" />
<rect x="1" y="17" width="1" height="1" fill="#16B8FF" />
<rect x="30" y="17" width="1" height="1" fill="#16B8FF" />
<rect x="2" y="18" width="1" height="1" fill="#16B8FF" />
<rect x="29" y="18" width="1" height="1" fill="#16B8FF" />
<rect x="3" y="19" width="1" height="1" fill="#16B8FF" />
<rect x="4" y="19" width="1" height="1" fill="#16B8FF" />
<rect x="27" y="19" width="1" height="1" fill="#16B8FF" />
<rect x="28" y="19" width="1" height="1" fill="#16B8FF" />
<rect x="5" y="20" width="1" height="1" fill="#16B8FF" />
<rect x="6" y="20" width="1" height="1" fill="#16B8FF" />
<rect x="25" y="20" width="1" height="1" fill="#16B8FF" />
<rect x="26" y="20" width="1" height="1" fill="#16B8FF" />
<rect x="7" y="21" width="1" height="1" fill="#16B8FF" />
<rect x="8" y="21" width="1" height="1" fill="#16B8FF" />
<rect x="9" y="21" width="1" height="1" fill="#16B8FF" />
<rect x="22" y="21" width="1" height="1" fill="#16B8FF" />
<rect x="23" y="21" width="1" height="1" fill="#16B8FF" />
<rect x="24" y="21" width="1" height="1" fill="#16B8FF" />
<rect x="3" y="22" width="1" height="1" fill="#0994D1" />
<rect x="4" y="22" width="1" height="1" fill="#0994D1" />
<rect x="10" y="22" width="1" height="1" fill="#16B8FF" />
<rect x="11" y="22" width="1" height="1" fill="#16B8FF" />
<rect x="12" y="22" width="1" height="1" fill="#16B8FF" />
<rect x="19" y="22" width="1" height="1" fill="#16B8FF" />
<rect x="20" y="22" width="1" height="1" fill="#16B8FF" />
<rect x="21" y="22" width="1" height="1" fill="#16B8FF" />
<rect x="27" y="22" width="1" height="1" fill="#0994D1" />
<rect x="28" y="22" width="1" height="1" fill="#0994D1" />
<rect x="2" y="23" width="1" height="1" fill="#0994D1" />
<rect x="13" y="23" width="1" height="1" fill="#16B8FF" />
<rect x="14" y="23" width="1" height="1" fill="#16B8FF" />
<rect x="15" y="23" width="1" height="1" fill="#16B8FF" />
<rect x="16" y="23" width="1" height="1" fill="#16B8FF" />
<rect x="17" y="23" width="1" height="1" fill="#16B8FF" />
<rect x="18" y="23" width="1" height="1" fill="#16B8FF" />
<rect x="29" y="23" width="1" height="1" fill="#0994D1" />
<rect x="1" y="24" width="1" height="1" fill="#0994D1" />
<rect x="30" y="24" width="1" height="1" fill="#0994D1" />
<rect x="7" y="25" width="1" height="1" fill="#0994D1" />
<rect x="8" y="25" width="1" height="1" fill="#0994D1" />
<rect x="23" y="25" width="1" height="1" fill="#0994D1" />
<rect x="24" y="25" width="1" height="1" fill="#0994D1" />
<rect x="6" y="26" width="1" height="1" fill="#0994D1" />
<rect x="25" y="26" width="1" height="1" fill="#0994D1" />
<rect x="5" y="27" width="1" height="1" fill="#0994D1" />
<rect x="12" y="27" width="1" height="1" fill="#0994D1" />
<rect x="19" y="27" width="1" height="1" fill="#0994D1" />
<rect x="26" y="27" width="1" height="1" fill="#0994D1" />
<rect x="5" y="28" width="1" height="1" fill="#0994D1" />
<rect x="11" y="28" width="1" height="1" fill="#0994D1" />
<rect x="20" y="28" width="1" height="1" fill="#0994D1" />
<rect x="26" y="28" width="1" height="1" fill="#0994D1" />
<rect x="11" y="29" width="1" height="1" fill="#0994D1" />
<rect x="20" y="29" width="1" height="1" fill="#0994D1" />
<rect x="11" y="30" width="1" height="1" fill="#0994D1" />
<rect x="20" y="30" width="1" height="1" fill="#0994D1" />
</svg>