<?xml version="1.0" encoding="UTF-8" ?>
<svg version="1.1" width="32" height="32" xmlns="http://www.w3.org/2000/svg" shape-rendering="crispEdges">
<rect x="2" y="4" width="1" height="1" fill="#DFDA64" />
<rect x="3" y="4" width="1" height="1" fill="#DFDA64" />
<rect x="4" y="4" width="1" height="1" fill="#DFDA64" />
<rect x="5" y="4" width="1" height="1" fill="#DFDA64" />
<rect x="6" y="4" width="1" height="1" fill="#DFDA64" />
<rect x="7" y="4" width="1" height="1" fill="#DFDA64" />
<rect x="8" y="4" width="1" height="1" fill="#DFDA64" />
<rect x="9" y="4" width="1" height="1" fill="#DFDA64" />
<rect x="10" y="4" width="1" height="1" fill="#DFDA64" />
<rect x="11" y="4" width="1" height="1" fill="#DFDA64" />
<rect x="12" y="4" width="1" height="1" fill="#DFDA64" />
<rect x="13" y="4" width="1" height="1" fill="#DFDA64" />
<rect x="14" y="4" width="1" height="1" fill="#DFDA64" />
<rect x="15" y="4" width="1" height="1" fill="#DFDA64" />
<rect x="16" y="4" width="1" height="1" fill="#DFDA64" />
<rect x="17" y="4" width="1" height="1" fill="#DFDA64" />
<rect x="18" y="4" width="1" height="1" fill="#DFDA64" />
<rect x="19" y="4" width="1" height="1" fill="#DFDA64" />
<rect x="20" y="4" width="1" height="1" fill="#DFDA64" />
<rect x="21" y="4" width="1" height="1" fill="#DFDA64" />
<rect x="22" y="4" width="1" height="1" fill="#DFDA64" />
<rect x="23" y="4" width="1" height="1" fill="#DFDA64" />
<rect x="24" y="4" width="1" height="1" fill="#DFDA64" />
<rect x="25" y="4" width="1" height="1" fill="#DFDA64" />
<rect x="2" y="5" width="1" height="1" fill="#DFDA64" />
<rect x="3" y="5" width="1" height="1" fill="#DFDA64" />
<rect x="4" y="5" width="1" height="1" fill="#DFDA64" />
<rect x="5" y="5" width="1" height="1" fill="#DFDA64" />
<rect x="6" y="5" width="1" height="1" fill="#DFDA64" />
<rect x="7" y="5" width="1" height="1" fill="#DFDA64" />
<rect x="8" y="5" width="1" height="1" fill="#DFDA64" />
<rect x="9" y="5" width="1" height="1" fill="#DFDA64" />
<rect x="10" y="5" width="1" height="1" fill="#DFDA64" />
<rect x="11" y="5" width="1" height="1" fill="#DFDA64" />
<rect x="12" y="5" width="1" height="1" fill="#DFDA64" />
<rect x="13" y="5" width="1" height="1" fill="#DFDA64" />
<rect x="14" y="5" width="1" height="1" fill="#DFDA64" />
<rect x="15" y="5" width="1" height="1" fill="#DFDA64" />
<rect x="16" y="5" width="1" height="1" fill="#DFDA64" />
<rect x="17" y="5" width="1" height="1" fill="#DFDA64" />
<rect x="18" y="5" width="1" height="1" fill="#DFDA64" />
<rect x="19" y="5" width="1" height="1" fill="#DFDA64" />
<rect x="20" y="5" width="1" height="1" fill="#DFDA64" />
<rect x="21" y="5" width="1" height="1" fill="#DFDA64" />
<rect x="22" y="5" width="1" height="1" fill="#DFDA64" />
<rect x="23" y="5" width="1" height="1" fill="#DFDA64" />
<rect x="24" y="5" width="1" height="1" fill="#DFDA64" />
<rect x="25" y="5" width="1" height="1" fill="#DFDA64" />
<rect x="2" y="6" width="1" height="1" fill="#DFDA64" />
<rect x="3" y="6" width="1" height="1" fill="#DFDA64" />
<rect x="24" y="6" width="1" height="1" fill="#DFDA64" />
<rect x="25" y="6" width="1" height="1" fill="#DFDA64" />
<rect x="2" y="7" width="1" height="1" fill="#DFDA64" />
<rect x="3" y="7" width="1" height="1" fill="#DFDA64" />
<rect x="24" y="7" width="1" height="1" fill="#DFDA64" />
<rect x="25" y="7" width="1" height="1" fill="#DFDA64" />
<rect x="2" y="8" width="1" height="1" fill="#DFDA64" />
<rect x="3" y="8" width="1" height="1" fill="#DFDA64" />
<rect x="24" y="8" width="1" height="1" fill="#DFDA64" />
<rect x="25" y="8" width="1" height="1" fill="#DFDA64" />
<rect x="2" y="9" width="1" height="1" fill="#DFDA64" />
<rect x="3" y="9" width="1" height="1" fill="#DFDA64" />
<rect x="24" y="9" width="1" height="1" fill="#DFDA64" />
<rect x="25" y="9" width="1" height="1" fill="#DFDA64" />
<rect x="2" y="10" width="1" height="1" fill="#DFDA64" />
<rect x="3" y="10" width="1" height="1" fill="#DFDA64" />
<rect x="24" y="10" width="1" height="1" fill="#DFDA64" />
<rect x="25" y="10" width="1" height="1" fill="#DFDA64" />
<rect x="2" y="11" width="1" height="1" fill="#DFDA64" />
<rect x="3" y="11" width="1" height="1" fill="#DFDA64" />
<rect x="24" y="11" width="1" height="1" fill="#DFDA64" />
<rect x="25" y="11" width="1" height="1" fill="#DFDA64" />
<rect x="2" y="12" width="1" height="1" fill="#DFDA64" />
<rect x="3" y="12" width="1" height="1" fill="#DFDA64" />
<rect x="6" y="12" width="1" height="1" fill="#DFDA64" />
<rect x="7" y="12" width="1" height="1" fill="#DFDA64" />
<rect x="8" y="12" width="1" height="1" fill="#DFDA64" />
<rect x="9" y="12" width="1" height="1" fill="#DFDA64" />
<rect x="10" y="12" width="1" height="1" fill="#DFDA64" />
<rect x="11" y="12" width="1" height="1" fill="#DFDA64" />
<rect x="12" y="12" width="1" height="1" fill="#DFDA64" />
<rect x="13" y="12" width="1" height="1" fill="#DFDA64" />
<rect x="14" y="12" width="1" height="1" fill="#DFDA64" />
<rect x="15" y="12" width="1" height="1" fill="#DFDA64" />
<rect x="16" y="12" width="1" height="1" fill="#DFDA64" />
<rect x="17" y="12" width="1" height="1" fill="#DFDA64" />
<rect x="18" y="12" width="1" height="1" fill="#DFDA64" />
<rect x="19" y="12" width="1" height="1" fill="#DFDA64" />
<rect x="20" y="12" width="1" height="1" fill="#DFDA64" />
<rect x="21" y="12" width="1" height="1" fill="#DFDA64" />
<rect x="22" y="12" width="1" height="1" fill="#DFDA64" />
<rect x="23" y="12" width="1" height="1" fill="#DFDA64" />
<rect x="24" y="12" width="1" height="1" fill="#DFDA64" />
<rect x="25" y="12" width="1" height="1" fill="#DFDA64" />
<rect x="26" y="12" width="1" height="1" fill="#DFDA64" />
<rect x="27" y="12" width="1" height="1" fill="#DFDA64" />
<rect x="28" y="12" width="1" height="1" fill="#DFDA64" />
<rect x="29" y="12" width="1" height="1" fill="#DFDA64" />
<rect x="2" y="13" width="1" height="1" fill="#DFDA64" />
<rect x="3" y="13" width="1" height="1" fill="#DFDA64" />
<rect x="6" y="13" width="1" height="1" fill="#DFDA64" />
<rect x="7" y="13" width="1" height="1" fill="#DFDA64" />
<rect x="8" y="13" width="1" height="1" fill="#DFDA64" />
<rect x="9" y="13" width="1" height="1" fill="#DFDA64" />
<rect x="10" y="13" width="1" height="1" fill="#DFDA64" />
<rect x="11" y="13" width="1" height="1" fill="#DFDA64" />
<rect x="12" y="13" width="1" height="1" fill="#DFDA64" />
<rect x="13" y="13" width="1" height="1" fill="#DFDA64" />
<rect x="14" y="13" width="1" height="1" fill="#DFDA64" />
<rect x="15" y="13" width="1" height="1" fill="#DFDA64" />
<rect x="16" y="13" width="1" height="1" fill="#DFDA64" />
<rect x="17" y="13" width="1" height="1" fill="#DFDA64" />
<rect x="18" y="13" width="1" height="1" fill="#DFDA64" />
<rect x="19" y="13" width="1" height="1" fill="#DFDA64" />
<rect x="20" y="13" width="1" height="1" fill="#DFDA64" />
<rect x="21" y="13" width="1" height="1" fill="#DFDA64" />
<rect x="22" y="13" width="1" height="1" fill="#DFDA64" />
<rect x="23" y="13" width="1" height="1" fill="#DFDA64" />
<rect x="24" y="13" width="1" height="1" fill="#DFDA64" />
<rect x="25" y="13" width="1" height="1" fill="#DFDA64" />
<rect x="26" y="13" width="1" height="1" fill="#DFDA64" />
<rect x="27" y="13" width="1" height="1" fill="#DFDA64" />
<rect x="28" y="13" width="1" height="1" fill="#DFDA64" />
<rect x="29" y="13" width="1" height="1" fill="#DFDA64" />
<rect x="2" y="14" width="1" height="1" fill="#DFDA64" />
<rect x="3" y="14" width="1" height="1" fill="#DFDA64" />
<rect x="6" y="14" width="1" height="1" fill="#DFDA64" />
<rect x="7" y="14" width="1" height="1" fill="#DFDA64" />
<rect x="28" y="14" width="1" height="1" fill="#DFDA64" />
<rect x="29" y="14" width="1" height="1" fill="#DFDA64" />
<rect x="2" y="15" width="1" height="1" fill="#DFDA64" />
<rect x="3" y="15" width="1" height="1" fill="#DFDA64" />
<rect x="6" y="15" width="1" height="1" fill="#DFDA64" />
<rect x="7" y="15" width="1" height="1" fill="#DFDA64" />
<rect x="28" y="15" width="1" height="1" fill="#DFDA64" />
<rect x="29" y="15" width="1" height="1" fill="#DFDA64" />
<rect x="2" y="16" width="1" height="1" fill="#DFDA64" />
<rect x="3" y="16" width="1" height="1" fill="#DFDA64" />
<rect x="6" y="16" width="1" height="1" fill="#DFDA64" />
<rect x="7" y="16" width="1" height="1" fill="#DFDA64" />
<rect x="28" y="16" width="1" height="1" fill="#DFDA64" />
<rect x="29" y="16" width="1" height="1" fill="#DFDA64" />
<rect x="2" y="17" width="1" height="1" fill="#DFDA64" />
<rect x="3" y="17" width="1" height="1" fill="#DFDA64" />
<rect x="6" y="17" width="1" height="1" fill="#DFDA64" />
<rect x="7" y="17" width="1" height="1" fill="#DFDA64" />
<rect x="28" y="17" width="1" height="1" fill="#DFDA64" />
<rect x="29" y="17" width="1" height="1" fill="#DFDA64" />
<rect x="2" y="18" width="1" height="1" fill="#DFDA64" />
<rect x="3" y="18" width="1" height="1" fill="#DFDA64" />
<rect x="4" y="18" width="1" height="1" fill="#DFDA64" />
<rect x="5" y="18" width="1" height="1" fill="#DFDA64" />
<rect x="6" y="18" width="1" height="1" fill="#DFDA64" />
<rect x="7" y="18" width="1" height="1" fill="#DFDA64" />
<rect x="28" y="18" width="1" height="1" fill="#DFDA64" />
<rect x="29" y="18" width="1" height="1" fill="#DFDA64" />
<rect x="2" y="19" width="1" height="1" fill="#DFDA64" />
<rect x="3" y="19" width="1" height="1" fill="#DFDA64" />
<rect x="4" y="19" width="1" height="1" fill="#DFDA64" />
<rect x="5" y="19" width="1" height="1" fill="#DFDA64" />
<rect x="6" y="19" width="1" height="1" fill="#DFDA64" />
<rect x="7" y="19" width="1" height="1" fill="#DFDA64" />
<rect x="28" y="19" width="1" height="1" fill="#DFDA64" />
<rect x="29" y="19" width="1" height="1" fill="#DFDA64" />
<rect x="6" y="20" width="1" height="1" fill="#DFDA64" />
<rect x="7" y="20" width="1" height="1" fill="#DFDA64" />
<rect x="28" y="20" width="1" height="1" fill="#DFDA64" />
<rect x="29" y="20" width="1" height="1" fill="#DFDA64" />
<rect x="6" y="21" width="1" height="1" fill="#DFDA64" />
<rect x="7" y="21" width="1" height="1" fill="#DFDA64" />
<rect x="28" y="21" width="1" height="1" fill="#DFDA64" />
<rect x="29" y="21" width="1" height="1" fill="#DFDA64" />
<rect x="6" y="22" width="1" height="1" fill="#DFDA64" />
<rect x="7" y="22" width="1" height="1" fill="#DFDA64" />
<rect x="28" y="22" width="1" height="1" fill="#DFDA64" />
<rect x="29" y="22" width="1" height="1" fill="#DFDA64" />
<rect x="6" y="23" width="1" height="1" fill="#DFDA64" />
<rect x="7" y="23" width="1" height="1" fill="#DFDA64" />
<rect x="28" y="23" width="1" height="1" fill="#DFDA64" />
<rect x="29" y="23" width="1" height="1" fill="#DFDA64" />
<rect x="6" y="24" width="1" height="1" fill="#DFDA64" />
<rect x="7" y="24" width="1" height="1" fill="#DFDA64" />
<rect x="28" y="24" width="1" height="1" fill="#DFDA64" />
<rect x="29" y="24" width="1" height="1" fill="#DFDA64" />
<rect x="6" y="25" width="1" height="1" fill="#DFDA64" />
<rect x="7" y="25" width="1" height="1" fill="#DFDA64" />
<rect x="28" y="25" width="1" height="1" fill="#DFDA64" />
<rect x="29" y="25" width="1" height="1" fill="#DFDA64" />
<rect x="6" y="26" width="1" height="1" fill="#DFDA64" />
<rect x="7" y="26" width="1" height="1" fill="#DFDA64" />
<rect x="8" y="26" width="1" height="1" fill="#DFDA64" />
<rect x="9" y="26" width="1" height="1" fill="#DFDA64" />
<rect x="10" y="26" width="1" height="1" fill="#DFDA64" />
<rect x="11" y="26" width="1" height="1" fill="#DFDA64" />
<rect x="12" y="26" width="1" height="1" fill="#DFDA64" />
<rect x="13" y="26" width="1" height="1" fill="#DFDA64" />
<rect x="14" y="26" width="1" height="1" fill="#DFDA64" />
<rect x="15" y="26" width="1" height="1" fill="#DFDA64" />
<rect x="16" y="26" width="1" height="1" fill="#DFDA64" />
<rect x="17" y="26" width="1" height="1" fill="#DFDA64" />
<rect x="18" y="26" width="1" height="1" fill="#DFDA64" />
<rect x="19" y="26" width="1" height="1" fill="#DFDA64" />
<rect x="20" y="26" width="1" height="1" fill="#DFDA64" />
<rect x="21" y="26" width="1" height="1" fill="#DFDA64" />
<rect x="22" y="26" width="1" height="1" fill="#DFDA64" />
<rect x="23" y="26" width="1" height="1" fill="#DFDA64" />
<rect x="24" y="26" width="1" height="1" fill="#DFDA64" />
<rect x="25" y="26" width="1" height="1" fill="#DFDA64" />
<rect x="26" y="26" width="1" height="1" fill="#DFDA64" />
<rect x="27" y="26" width="1" height="1" fill="#DFDA64" />
<rect x="28" y="26" width="1" height="1" fill="#DFDA64" />
<rect x="29" y="26" width="1" height="1" fill="#DFDA64" />
<rect x="6" y="27" width="1" height="1" fill="#DFDA64" />
<rect x="7" y="27" width="1" height="1" fill="#DFDA64" />
<rect x="8" y="27" width="1" height="1" fill="#DFDA64" />
<rect x="9" y="27" width="1" height="1" fill="#DFDA64" />
<rect x="10" y="27" width="1" height="1" fill="#DFDA64" />
<rect x="11" y="27" width="1" height="1" fill="#DFDA64" />
<rect x="12" y="27" width="1" height="1" fill="#DFDA64" />
<rect x="13" y="27" width="1" height="1" fill="#DFDA64" />
<rect x="14" y="27" width="1" height="1" fill="#DFDA64" />
<rect x="15" y="27" width="1" height="1" fill="#DFDA64" />
<rect x="16" y="27" width="1" height="1" fill="#DFDA64" />
<rect x="17" y="27" width="1" height="1" fill="#DFDA64" />
<rect x="18" y="27" width="1" height="1" fill="#DFDA64" />
<rect x="19" y="27" width="1" height="1" fill="#DFDA64" />
<rect x="20" y="27" width="1" height="1" fill="#DFDA64" />
<rect x="21" y="27" width="1" height="1" fill="#DFDA64" />
<rect x="22" y="27" width="1" height="1" fill="#DFDA64" />
<rect x="23" y="27" width="1" height="1" fill="#DFDA64" />
<rect x="24" y="27" width="1" height="1" fill="#DFDA64" />
<rect x="25" y="27" width="1" height="1" fill="#DFDA64" />
<rect x="26" y="27" width="1" height="1" fill="#DFDA64" />
<rect x="27" y="27" width="1" height="1" fill="#DFDA64" />
<rect x="28" y="27" width="1" height="1" fill="#DFDA64" />
<rect x="29" y="27" width="1" height="1" fill="#DFDA64" />
</svg>